<?xml version="1.0" encoding="UTF-8"?>
<svg width="927px" height="401px" viewBox="0 0 927 401" version="1.1" xmlns="http://www.w3.org/2000/svg" xmlns:xlink="http://www.w3.org/1999/xlink">
    <title>Artboard</title>
    <defs>
        <linearGradient x1="3.66234595%" y1="64.9619951%" x2="100%" y2="64.9619951%" id="linearGradient-1">
            <stop stop-color="#88C0D0" offset="0%"></stop>
            <stop stop-color="#81A1C1" offset="99.9880491%"></stop>
        </linearGradient>
    </defs>
    <g id="Artboard" stroke="none" stroke-width="1" fill="none" fill-rule="evenodd">
        <g id="Group" fill-rule="nonzero">
            <path d="M89.4453954,149 C119.881593,149 142.505291,164.70638 157.316489,196.119141 C172.127687,227.531901 119.067791,234.9375 111.906333,220.289062 C104.744875,205.640625 95.8744319,198.316406 85.2950048,198.316406 C80.2494319,198.316406 75.9362808,199.984701 72.3555517,203.321289 C68.7748225,206.657878 66.9844579,210.930339 66.9844579,216.138672 C66.9844579,225.253255 77.563885,234.286458 98.7227392,243.238281 C127.856854,255.770833 147.469484,267.326823 157.56063,277.90625 C167.651776,288.485677 172.697349,302.727214 172.697349,320.630859 C172.697349,343.580078 164.233807,362.785807 147.306724,378.248047 C130.867921,392.896484 111.011151,400.220703 87.736411,400.220703 C47.860109,400.220703 19.6211767,380.770833 3.01961416,341.871094 C-13.5819483,302.971354 43.3841975,308.749349 49.8946142,320.142578 C56.4050308,331.535807 61.3692235,338.778646 64.7871923,341.871094 C71.4603694,348.05599 79.4356298,351.148438 88.7129735,351.148438 C107.267661,351.148438 116.545005,342.684896 116.545005,325.757812 C116.545005,315.992188 109.383546,306.877604 95.0606298,298.414062 C89.5267756,295.647135 83.9929215,292.961589 78.4590673,290.357422 C72.9252131,287.753255 67.3099787,285.067708 61.6133642,282.300781 C45.6628433,274.488281 34.4323746,266.675781 27.9219579,258.863281 C19.6211767,248.934896 15.470786,236.158203 15.470786,220.533203 C15.470786,199.86263 22.5508642,182.772786 36.7110204,169.263672 C51.1966975,155.754557 68.7748225,149 89.4453954,149 Z M305.746094,149 C340.739583,149 368.408854,160.149089 388.753906,182.447266 C408.734375,204.361328 418.824512,234.650269 419.024316,273.314087 L419.027344,274.488281 L418.783203,287.427734 L248.373047,287.427734 C249.837891,306.958984 256.185547,322.502604 267.416016,334.058594 C278.646484,345.451823 293.050781,351.148438 310.628906,351.148438 C324.300781,351.148438 335.61263,347.893229 344.564453,341.382812 C353.353516,334.872396 362.721882,327.904556 377.721794,312.234694 C392.721705,296.564832 423.078555,326.903559 416.442945,338.862246 C409.807334,350.820933 406.250651,353.793294 398.275391,362.500977 C390.30013,371.208659 381.755208,378.370117 372.640625,383.985352 C363.526042,389.600586 353.679036,393.710286 343.099609,396.314453 C332.520182,398.91862 321.045573,400.220703 308.675781,400.220703 C273.19401,400.220703 244.710938,388.827474 223.226563,366.041016 C201.742188,343.091797 191,312.655599 191,274.732422 C191,237.134766 201.416667,206.698568 222.25,183.423828 C243.246094,160.474609 271.078125,149 305.746094,149 Z M718.575775,69.0488281 C718.575775,50.5489076 773.507416,50.5489076 773.507416,69.0488281 L773.507416,69.0488281 L773.507416,156.207031 L773.507416,156.207031 L816.232025,156.207031 C832.166182,156.207031 831.480021,207.476562 816.232025,207.476562 L816.232025,207.476562 L773.507416,207.476562 L773.507416,207.476562 L773.507416,387.578318 C773.507416,402.284768 718.575775,402.284768 718.575775,387.578318 L718.575775,387.578318 L718.575775,207.476562 L718.575775,207.476562 L672,207.476562 C658.574054,207.476562 658.574054,156.207031 672,156.207031 L672,156.207031 L718.575775,156.207031 L718.575775,156.207031 Z M853.585541,172.137355 C853.585541,146.549351 908.517181,146.549351 908.517181,172.137355 L908.517181,172.137355 L908.517181,377.071524 C908.517181,401.812315 853.585541,401.812315 853.585541,377.071524 L853.585541,377.071524 Z M444,164.087198 C444,141.605741 499.175781,145.433707 499.175781,164.087198 L499.175781,164.087198 L499.175781,178.564453 C518.38151,159.521484 540.028646,150 564.117188,150 C591.786458,150 613.352214,158.707682 628.814453,176.123047 C642.160807,190.934245 648.833984,215.104167 648.833984,248.632812 L648.833984,248.632812 L648.833984,379.178558 C648.833984,401 593.658203,399.872787 593.658203,379.178558 L593.658203,379.178558 L593.658203,261.572266 C593.658203,238.134766 590.402995,221.940104 583.892578,212.988281 C577.544922,203.873698 565.988932,199.316406 549.224609,199.316406 C530.995443,199.316406 518.05599,205.338542 510.40625,217.382812 C502.919271,229.264323 499.175781,250.016276 499.175781,279.638672 L499.175781,279.638672 L499.175781,379.178558 C499.175781,398.568291 444,398.568291 444,379.178558 L444,379.178558 Z M305.338867,199.175781 C298.66569,199.175781 292.399414,200.193034 286.540039,202.227539 C280.680664,204.262044 275.35026,207.191732 270.548828,211.016602 C265.747396,214.841471 261.637695,219.439453 258.219727,224.810547 C254.944173,229.957845 252.416018,235.777802 250.635261,242.270416 L250.407227,243.121094 L360.758789,243.121094 C353.109049,213.824219 334.635742,199.175781 305.338867,199.175781 Z" id="Combined-Shape" fill="#FFFFFF"></path>
            <path d="M881.34471,0 C893.974972,0 904.741752,4.34661315 913.645051,13.0398394 C922.54835,21.5308977 927,31.9425524 927,44.2748037 C927,56.6070549 894.130262,136 881.5,136 C868.869738,136 836,56.1382533 836,43.9715516 C836,31.8048499 840.45165,21.7330657 849.354949,13.0398394 C858.258248,4.34661315 868.921502,0 881.34471,0 Z M882,24 C870.40202,24 861,33.4020203 861,45 C861,56.5979797 870.40202,66 882,66 C893.59798,66 903,56.5979797 903,45 C903,33.4020203 893.59798,24 882,24 Z" id="Combined-Shape" fill="url(#linearGradient-1)"></path>
        </g>
    </g>
</svg>